<svg width="198" height="74" viewBox="0 0 198 74" fill="none" xmlns="http://www.w3.org/2000/svg">
<path d="M0.875 33V30.2656L3.29688 29.7969V13.4688L0.875 13V10.25H3.29688H10.9844C13.6615 10.25 15.75 10.7708 17.25 11.8125C18.75 12.8542 19.5 14.4115 19.5 16.4844C19.5 17.5365 19.2188 18.4792 18.6562 19.3125C18.1042 20.1354 17.2969 20.7552 16.2344 21.1719C17.1406 21.3698 17.8958 21.7188 18.5 22.2188C19.1146 22.7188 19.5729 23.3281 19.875 24.0469C20.1771 24.7552 20.3281 25.5312 20.3281 26.375C20.3281 28.5521 19.6094 30.2031 18.1719 31.3281C16.7344 32.4427 14.6979 33 12.0625 33H0.875ZM7.85938 29.5H12.0625C13.2708 29.5 14.1927 29.2396 14.8281 28.7188C15.4635 28.1875 15.7812 27.4062 15.7812 26.375C15.7812 25.625 15.6615 24.9948 15.4219 24.4844C15.1823 23.974 14.8125 23.5885 14.3125 23.3281C13.8229 23.0677 13.1875 22.9375 12.4062 22.9375H7.85938V29.5ZM7.85938 19.7812H11.1406C12.3594 19.7812 13.2969 19.5312 13.9531 19.0312C14.6094 18.5312 14.9375 17.8021 14.9375 16.8438C14.9375 15.7917 14.6042 15.0156 13.9375 14.5156C13.2812 14.0156 12.2969 13.7656 10.9844 13.7656H7.85938V19.7812ZM28.6806 33V30.2656L30.3056 30.0312L37.54 10.25H42.2119L49.3994 30.0312L51.0244 30.2656V33H43.2744V30.2656L44.8525 29.9844L43.8525 26.8594H35.8525L34.8525 29.9844L36.4306 30.2656V33H28.6806ZM36.9306 23.5H42.7744L40.1181 15.7031L39.8994 15.0156H39.8056L39.5713 15.75L36.9306 23.5ZM59.58 33V30.2656L62.0019 29.7969V13.4688L59.58 13V10.25H62.0019H66.5644H69.3144V13L66.5644 13.4688V29.5H72.9863L73.205 26.1719H76.6894V33H59.58ZM85.1356 33V30.2656L86.7606 30.0312L93.995 10.25H98.6669L105.854 30.0312L107.479 30.2656V33H99.7294V30.2656L101.308 29.9844L100.308 26.8594H92.3075L91.3075 29.9844L92.8856 30.2656V33H85.1356ZM93.3856 23.5H99.2294L96.5731 15.7031L96.3544 15.0156H96.2606L96.0263 15.75L93.3856 23.5ZM116.035 33V30.2656L118.457 29.7969V13.4688L116.035 13V10.25H118.457H123.082L132.988 26.0312L133.082 26.0156V13.4688L130.176 13V10.25H137.16H139.598V13L137.16 13.4688V33H132.754L122.629 17.375L122.535 17.3906V29.7969L125.457 30.2656V33H116.035ZM158.966 33.3281C156.757 33.3281 154.835 32.8698 153.2 31.9531C151.565 31.026 150.299 29.7188 149.403 28.0312C148.518 26.3333 148.075 24.3281 148.075 22.0156V21.25C148.075 19.0417 148.502 17.0885 149.356 15.3906C150.221 13.6823 151.45 12.3438 153.044 11.375C154.637 10.4062 156.533 9.92188 158.731 9.92188C160.273 9.92188 161.716 10.1406 163.059 10.5781C164.414 11.0156 165.622 11.6823 166.684 12.5781V18.0781H163.294L162.825 14.625C162.481 14.375 162.106 14.1615 161.7 13.9844C161.294 13.8073 160.851 13.6719 160.372 13.5781C159.903 13.4844 159.393 13.4375 158.841 13.4375C157.549 13.4375 156.44 13.7552 155.512 14.3906C154.585 15.026 153.872 15.9271 153.372 17.0938C152.882 18.25 152.637 19.625 152.637 21.2188V22.0156C152.637 23.6094 152.898 24.9896 153.419 26.1562C153.94 27.3229 154.679 28.2292 155.637 28.875C156.596 29.5104 157.731 29.8281 159.044 29.8281C159.7 29.8281 160.356 29.7552 161.012 29.6094C161.679 29.4531 162.283 29.2552 162.825 29.0156L163.294 25.8125H166.684V31.25C165.799 31.8333 164.695 32.3281 163.372 32.7344C162.049 33.1302 160.58 33.3281 158.966 33.3281ZM156.637 40.1719L156.528 37.6719C157.153 37.6719 157.648 37.5677 158.012 37.3594C158.387 37.1615 158.575 36.8542 158.575 36.4375C158.575 35.9896 158.393 35.6771 158.028 35.5C157.664 35.3333 157.085 35.2292 156.294 35.1875L156.825 32.7188H160.184L159.981 33.875C160.679 33.9896 161.262 34.25 161.731 34.6562C162.2 35.0729 162.434 35.6875 162.434 36.5C162.434 37.6146 161.929 38.5052 160.919 39.1719C159.908 39.8385 158.481 40.1719 156.637 40.1719ZM186.256 33.3281C184.724 33.3281 183.329 33.0417 182.068 32.4688C180.808 31.8958 179.719 31.0938 178.803 30.0625C177.896 29.0208 177.198 27.8021 176.709 26.4062C176.219 25 175.974 23.4635 175.974 21.7969V21.4531C175.974 19.7969 176.219 18.2708 176.709 16.875C177.198 15.4688 177.896 14.2448 178.803 13.2031C179.709 12.1615 180.792 11.3542 182.053 10.7812C183.313 10.2083 184.709 9.92188 186.24 9.92188C187.782 9.92188 189.188 10.2083 190.459 10.7812C191.73 11.3542 192.823 12.1615 193.74 13.2031C194.657 14.2448 195.36 15.4688 195.849 16.875C196.349 18.2708 196.599 19.7969 196.599 21.4531V21.7969C196.599 23.4635 196.349 25 195.849 26.4062C195.36 27.8021 194.657 29.0208 193.74 30.0625C192.823 31.0938 191.73 31.8958 190.459 32.4688C189.198 33.0417 187.797 33.3281 186.256 33.3281ZM186.256 29.7812C187.547 29.7812 188.62 29.4479 189.474 28.7812C190.329 28.1146 190.969 27.1823 191.396 25.9844C191.834 24.7865 192.053 23.3906 192.053 21.7969V21.4219C192.053 19.849 191.834 18.4688 191.396 17.2812C190.959 16.0833 190.308 15.151 189.443 14.4844C188.589 13.8177 187.521 13.4844 186.24 13.4844C184.969 13.4844 183.912 13.8177 183.068 14.4844C182.224 15.1406 181.589 16.0625 181.162 17.25C180.745 18.4375 180.537 19.8281 180.537 21.4219V21.7969C180.537 23.3906 180.745 24.7865 181.162 25.9844C181.589 27.1823 182.224 28.1146 183.068 28.7812C183.922 29.4479 184.985 29.7812 186.256 29.7812Z" fill="#232580"/>
<path d="M8.61328 67.2461C6.97266 67.2461 5.5625 66.8906 4.38281 66.1797C3.20312 65.4609 2.29688 64.4688 1.66406 63.2031C1.03125 61.9297 0.714844 60.457 0.714844 58.7852V58.3281C0.714844 56.6172 1.02734 55.1172 1.65234 53.8281C2.28516 52.5312 3.16797 51.5195 4.30078 50.793C5.43359 50.0586 6.75391 49.6914 8.26172 49.6914C9.52734 49.6914 10.668 49.8555 11.6836 50.1836C12.6992 50.5039 13.5742 50.9648 14.3086 51.5664V55.2109H12.0469L11.6719 52.8438C11.3281 52.5859 10.8906 52.3828 10.3594 52.2344C9.82812 52.0859 9.21094 52.0117 8.50781 52.0117C7.54688 52.0117 6.69922 52.2773 5.96484 52.8086C5.23828 53.332 4.67188 54.0664 4.26562 55.0117C3.86719 55.9492 3.66797 57.0469 3.66797 58.3047V58.7852C3.66797 60.0273 3.85938 61.1094 4.24219 62.0312C4.63281 62.9531 5.19922 63.668 5.94141 64.1758C6.69141 64.6836 7.60156 64.9375 8.67188 64.9375C9.35156 64.9375 9.94922 64.875 10.4648 64.75C10.9883 64.625 11.4336 64.4688 11.8008 64.2812V60.918L9.01172 60.7539V58.6562H14.7539V65.4297C14.1055 65.9375 13.2773 66.3672 12.2695 66.7188C11.2695 67.0703 10.0508 67.2461 8.61328 67.2461ZM21.5344 67V65.1953L23.3977 64.8438V52.1055L21.5344 51.7539V49.9375H34.5305V54.332H32.2336L32.0344 52.2109H26.3508V57.0391H32.3391V59.3242H26.3508V64.75H32.3508L32.55 62.582H34.8234V67H21.5344ZM41.6625 67V65.1953L43.5258 64.8438V52.1055L41.6625 51.7539V49.9375H49.5492C50.8305 49.9375 51.9242 50.1367 52.8305 50.5352C53.7367 50.9258 54.4281 51.4883 54.9047 52.2227C55.3812 52.957 55.6195 53.8438 55.6195 54.8828C55.6195 55.8828 55.3812 56.7539 54.9047 57.4961C54.4359 58.2383 53.7758 58.8164 52.9242 59.2305C52.0805 59.6367 51.0883 59.8477 49.9477 59.8633L46.4789 59.8984V64.8438L48.3422 65.1953V67H41.6625ZM52.7602 67L49.5023 59.1484L52.268 58.6914L55.0336 64.8906L56.3695 65.1719V67H52.7602ZM46.4789 57.6016H49.4203C50.5297 57.6016 51.35 57.3789 51.8812 56.9336C52.4125 56.4805 52.6781 55.8242 52.6781 54.9648C52.6781 54.1289 52.4203 53.4648 51.9047 52.9727C51.3891 52.4727 50.6039 52.2227 49.5492 52.2227H46.4789V57.6016ZM62.693 67V65.1953L63.9352 65.0195L69.5836 49.9375H72.4547L78.0328 65.0195L79.275 65.1953V67H73.8492V65.1953L75.068 64.9727L74.1656 62.2891H67.8141L66.8883 64.9727L68.1188 65.1953V67H62.693ZM68.5875 60.0273H73.4039L71.1891 53.7109L71.0367 53.2539H70.9664L70.8023 53.7344L68.5875 60.0273ZM85.4812 67V65.1953L87.3445 64.8438V52.1055L85.4812 51.7539V49.9375H87.3445H90.2977H92.3016V51.7539L90.2977 52.1055V64.7383H95.6297L95.8289 62.1602H98.0906V67H85.4812Z" fill="#232580"/>
<line x1="122.5" y1="68" x2="122.5" y2="48" stroke="#EEEEEE"/>
<path d="M148.137 67V65.418L153.727 59.207C154.391 58.4648 154.91 57.832 155.285 57.3086C155.66 56.7773 155.922 56.2969 156.07 55.8672C156.219 55.4375 156.293 54.9922 156.293 54.5312C156.293 53.6797 156.035 52.9648 155.52 52.3867C155.004 51.8008 154.266 51.5078 153.305 51.5078C152.305 51.5078 151.523 51.8086 150.961 52.4102C150.406 53.0117 150.129 53.8633 150.129 54.9648H147.914L147.891 54.8945C147.867 53.9102 148.074 53.0273 148.512 52.2461C148.949 51.457 149.582 50.8359 150.41 50.3828C151.246 49.9219 152.238 49.6914 153.387 49.6914C154.465 49.6914 155.391 49.8984 156.164 50.3125C156.945 50.7188 157.547 51.2773 157.969 51.9883C158.391 52.6992 158.602 53.5156 158.602 54.4375C158.602 55.0625 158.477 55.6836 158.227 56.3008C157.984 56.918 157.625 57.5508 157.148 58.1992C156.68 58.8477 156.113 59.5312 155.449 60.25L150.961 65.1367L150.984 65.1953H157.043L157.23 63.2383H159.188V67H148.137ZM167.121 67.2461C165.449 67.2461 164.125 66.6641 163.148 65.5C162.172 64.3359 161.684 62.668 161.684 60.4961V56.4531C161.684 54.2812 162.168 52.6133 163.137 51.4492C164.105 50.2773 165.426 49.6914 167.098 49.6914C168.777 49.6914 170.105 50.2773 171.082 51.4492C172.059 52.6133 172.547 54.2812 172.547 56.4531V60.4961C172.547 62.6758 172.062 64.3477 171.094 65.5117C170.125 66.668 168.801 67.2461 167.121 67.2461ZM167.121 65.4414C168.145 65.4414 168.918 65.0664 169.441 64.3164C169.973 63.5664 170.238 62.4492 170.238 60.9648V55.9609C170.238 54.4844 169.969 53.375 169.43 52.6328C168.898 51.8828 168.121 51.5078 167.098 51.5078C166.09 51.5078 165.32 51.8828 164.789 52.6328C164.258 53.375 163.992 54.4844 163.992 55.9609V60.9648C163.992 62.4414 164.262 63.5586 164.801 64.3164C165.34 65.0664 166.113 65.4414 167.121 65.4414ZM175.09 67V65.418L180.68 59.207C181.344 58.4648 181.863 57.832 182.238 57.3086C182.613 56.7773 182.875 56.2969 183.023 55.8672C183.172 55.4375 183.246 54.9922 183.246 54.5312C183.246 53.6797 182.988 52.9648 182.473 52.3867C181.957 51.8008 181.219 51.5078 180.258 51.5078C179.258 51.5078 178.477 51.8086 177.914 52.4102C177.359 53.0117 177.082 53.8633 177.082 54.9648H174.867L174.844 54.8945C174.82 53.9102 175.027 53.0273 175.465 52.2461C175.902 51.457 176.535 50.8359 177.363 50.3828C178.199 49.9219 179.191 49.6914 180.34 49.6914C181.418 49.6914 182.344 49.8984 183.117 50.3125C183.898 50.7188 184.5 51.2773 184.922 51.9883C185.344 52.6992 185.555 53.5156 185.555 54.4375C185.555 55.0625 185.43 55.6836 185.18 56.3008C184.938 56.918 184.578 57.5508 184.102 58.1992C183.633 58.8477 183.066 59.5312 182.402 60.25L177.914 65.1367L177.938 65.1953H183.996L184.184 63.2383H186.141V67H175.09ZM188.637 67V65.5234L191.273 65.1953V52.4102L188.59 52.457V51.0156L193.582 49.9375V65.1953L196.207 65.5234V67H188.637Z" fill="#232580"/>
</svg>
